<?xml version="1.0" encoding="UTF-8"?>
<svg id="Layer_2" data-name="Layer 2" xmlns="http://www.w3.org/2000/svg" viewBox="0 0 396.24 402.66">
  <defs>
    <style>
      .cls-1 {
        fill: #f15822;
      }

      .cls-2 {
        fill: #24b366;
      }

      .cls-2, .cls-3 {
        stroke: #231f20;
        stroke-miterlimit: 10;
      }

      .cls-3 {
        fill: #24b266;
      }

      .cls-4 {
        font-size: 49.83px;
      }

      .cls-4, .cls-5 {
        fill: #231f20;
        font-family: FranklinGothic-Demi, 'Franklin Gothic Demi';
      }

      .cls-5 {
        font-size: 28.26px;
      }
    </style>
  </defs>
  <g id="Layer_1-2" data-name="Layer 1">
    <path class="cls-3" d="M161.23,95.71c7.92-2.13,18.95-4.18,32.14-3.86,10.06,.25,18.67,1.81,25.39,3.54,7.23,1.81,15.97,4.67,25.39,9.32,12.84,6.34,22.52,13.82,29.25,19.93,5.07-4.81,10.21-9.63,15.43-14.46,3.98-3.69,7.94-7.33,11.89-10.93-9.37-10.17-35-35.19-76.5-44.04-27.49-5.86-50.55-2.19-63.64,.96l.64,39.54Z"/>
    <path class="cls-1" d="M111.41,74.18c.11,35.32,.21,70.64,.32,105.96,17.68-.18,35.36-.36,53.04-.54h0c.1-.07,6.05-4.32,10.18-6.32,7.25-3.52,14.47-2.8,18.86-2.36,3.44,.34,9.95,1.07,16.93,5.36,6.86,4.22,10.43,9.59,12,12,.7,1.08,4.03,6.32,5.57,13.07,2.46,10.81,.54,26.38-9.43,36.21-12.31,12.15-34.79,13.46-52.5,.86h-48.21c2.25,6.45,8.73,22.25,25.07,34.71,17.74,13.54,36.14,14.77,42.43,15.11,5.12,.27,23.71,.76,43.39-10.29,12.43-6.98,19.83-15.48,22.18-18.32,21.16-25.55,18.11-56.34,17.68-60.11-2.61-22.73-14.37-38-19.61-44.04-6.03-5.47-19.2-16.08-37.93-20.89-13.18-3.39-24.5-2.72-26.68-2.57-4.72,.32-8.67,.99-11.57,1.61-5.14,1.61-10.29,3.21-15.43,4.82-2.25,.86-4.5,1.71-6.75,2.57V57.46c-13.18,5.57-26.36,11.14-39.54,16.71Z"/>
    <path class="cls-2" d="M276.83,190.37h69.43c1.84,14.5,3.43,42.9-8.68,75.21-3.16,8.42-16.07,40.67-48.77,67.39-15.35,12.54-29.34,19.2-34.8,21.64-9.32,4.17-38.53,16.1-76.18,12.86-52.98-4.57-87.18-36.12-97.07-45.96,8.79-8.79,17.57-17.57,26.36-26.36,7.95,7.17,33.15,28.07,72,31.5,5.9,.52,43.54,3.33,77.79-19.29,16.43-10.84,26.56-23.89,28.96-27.07,4.67-6.18,9.93-13.12,13.69-23.72,3.84-10.83,6.21-25.71,6.21-25.71,0,0-7.87-.55-15.21-.63-10.53-.11-11.24,.86-12.64-.38-3.64-3.23,.42-10.38,.64-23.41,.12-6.86-.88-12.47-1.71-16.07Z"/>
    <path class="cls-2" d="M100.8,80.29l1.93,51.75c-5.28,6.3-11.53,14.95-17.04,26.04-5.97,12.02-9.15,23.04-10.93,31.5,46.28,.43,92.56,.86,138.85,1.29,1.71,2.95,5.11,9.72,5.15,18.96,.04,9.43-3.44,16.33-5.15,19.29H34.59c-1.76-14.03-3.91-46.38,11.89-82.61,16.33-37.44,42.74-58.14,54.32-66.21Z"/>
    <text class="cls-4" transform="translate(37.01 146.16) rotate(-61.23)"><tspan x="0" y="0">B</tspan></text>
    <text class="cls-4" transform="translate(52.2 118.28) rotate(-51.59)"><tspan x="0" y="0">R</tspan></text>
    <text class="cls-4" transform="translate(72.68 93.32) rotate(-44.34)"><tspan x="0" y="0">I</tspan></text>
    <text class="cls-4" transform="translate(82.24 83.12) rotate(-36.9)"><tspan x="0" y="0">G</tspan></text>
    <text class="cls-4" transform="translate(107.05 64.31) rotate(-26.1)"><tspan x="0" y="0">H</tspan></text>
    <text class="cls-4" transform="translate(135.42 50.69) rotate(-15.99)"><tspan x="0" y="0">T</tspan></text>
    <text class="cls-4" transform="translate(158.57 44.34) rotate(-8.56)"><tspan x="0" y="0"> </tspan></text>
    <text class="cls-4" transform="translate(170.26 41.93) rotate(-1.42)"><tspan x="0" y="0">S</tspan></text>
    <text class="cls-4" transform="translate(198.65 41.38) rotate(8.11)"><tspan x="0" y="0">T</tspan></text>
    <text class="cls-4" transform="translate(222.39 45.04) rotate(14.73)"><tspan x="0" y="0">I</tspan></text>
    <text class="cls-4" transform="translate(236.07 48.33) rotate(21.1)"><tspan x="0" y="0">T</tspan></text>
    <text class="cls-4" transform="translate(258.19 56.53) rotate(29.74)"><tspan x="0" y="0">C</tspan></text>
    <text class="cls-4" transform="translate(284.76 71.6) rotate(39.29)"><tspan x="0" y="0">H</tspan></text>
    <text class="cls-4" transform="translate(309.13 92.2) rotate(46.19)"><tspan x="0" y="0">I</tspan></text>
    <text class="cls-4" transform="translate(319.25 101.94) rotate(53)"><tspan x="0" y="0">N</tspan></text>
    <text class="cls-4" transform="translate(338.27 127.11) rotate(62.26)"><tspan x="0" y="0">G</tspan></text>
    <text class="cls-4" transform="translate(352.55 155.37) rotate(68.64)"><tspan x="0" y="0"> </tspan></text>
    <text class="cls-5" transform="translate(36.02 309.81) rotate(56.21) scale(1.13 1)"><tspan x="0" y="0">U</tspan></text>
    <text class="cls-5" transform="translate(48.9 328.75) rotate(47.85) scale(1.13 1)"><tspan x="0" y="0">N</tspan></text>
    <text class="cls-5" transform="translate(64.08 344.98) rotate(42.06) scale(1.13 1)"><tspan x="0" y="0">I</tspan></text>
    <text class="cls-5" transform="translate(71.89 352.12) rotate(37.39) scale(1.13 1)"><tspan x="0" y="0">T</tspan></text>
    <text class="cls-5" transform="translate(85.65 362.61) rotate(31.27) scale(1.13 1)"><tspan x="0" y="0">E</tspan></text>
    <text class="cls-5" transform="translate(102.79 372.97) rotate(24.49) scale(1.13 1)"><tspan x="0" y="0">D</tspan></text>
    <text class="cls-5" transform="translate(123.03 381.83) rotate(19.58) scale(1.13 1)"><tspan x="0" y="0"> </tspan></text>
    <text class="cls-5" transform="translate(131.74 385.11) rotate(14.95) scale(1.13 1)"><tspan x="0" y="0">A</tspan></text>
    <text class="cls-5" transform="translate(152.26 390.53) rotate(8.25) scale(1.13 1)"><tspan x="0" y="0">R</tspan></text>
    <text class="cls-5" transform="translate(174.85 393.7) rotate(1.32) scale(1.13 1)"><tspan x="0" y="0">A</tspan></text>
    <text class="cls-5" transform="translate(195.99 394.19) rotate(-4.98) scale(1.13 1)"><tspan x="0" y="0">B</tspan></text>
    <text class="cls-5" transform="translate(218.07 391.94) rotate(-9.75) scale(1.13 1)"><tspan x="0" y="0"> </tspan></text>
    <text class="cls-5" transform="translate(227.21 390.52) rotate(-14.1) scale(1.13 1)"><tspan x="0" y="0">E</tspan></text>
    <text class="cls-5" transform="translate(246.85 385.77) rotate(-21.7) scale(1.13 1)"><tspan x="0" y="0">M</tspan></text>
    <text class="cls-5" transform="translate(273.72 374.45) rotate(-27.98) scale(1.13 1)"><tspan x="0" y="0">I</tspan></text>
    <text class="cls-5" transform="translate(283.3 369.59) rotate(-33.31) scale(1.13 1)"><tspan x="0" y="0">R</tspan></text>
    <text class="cls-5" transform="translate(302.39 356.85) rotate(-40.68) scale(1.13 1)"><tspan x="0" y="0">A</tspan></text>
    <text class="cls-5" transform="translate(317.07 344.11) rotate(-46.77) scale(1.13 1)"><tspan x="0" y="0">T</tspan></text>
    <text class="cls-5" transform="translate(329 331.38) rotate(-53.54) scale(1.13 1)"><tspan x="0" y="0">E</tspan></text>
    <text class="cls-5" transform="translate(340.92 315.07) rotate(-61.22) scale(1.13 1)"><tspan x="0" y="0">S</tspan></text>
  </g>
</svg>